<svg version="1" xmlns="http://www.w3.org/2000/svg" width="400" height="400" viewBox="0 0 300.000000 300.000000"><path d="M139 2.3c-7.3 2.6-10.7 4.4-48.5 25.2C75.7 35.7 60.6 44 56.9 45.9 32.4 59.3 26.7 62.6 21.7 66.5c-6.5 5.2-10.2 11-11.5 18.2L9.3 90l21.1 11.6C42 108.1 57.6 116.8 65 121c7.4 4.3 22.3 12.4 33 18 29.8 15.7 34.5 19.6 37.1 30.5 1.2 5.2 2 91.8.8 93.6-.7 1.2-83-43.7-88.3-48.2-2.1-1.8-4.8-5.3-6-7.8-2-4.3-2.1-6.5-2.4-36.1l-.3-31.5-14.4-8.1c-7.9-4.5-14.7-7.9-15-7.6-.3.3-.5 19.8-.5 43.3.2 45.9.5 50 5.3 58 4.8 8.3 4.4 8 78.2 48.4 14.9 8.1 29.3 16 32 17.5 7.7 4.3 17.3 7.9 22.7 8.6 5.6.8 16.2-1.2 17.9-3.3 1.5-1.7 1.5-127.3 0-137.4-2.3-16.2-7.7-20.9-47.6-41.9-17.7-9.4-24.6-13.1-44.6-24.5-15.9-9-19.4-11.4-18-12.2.9-.5 4.8-2.7 8.6-4.8 3.9-2.1 12-6.6 18-10 6.1-3.4 14.6-8.1 19-10.5 11.2-6.1 15.1-8.2 22.5-12.4 24.3-13.8 29.1-14.1 48.7-3.5 41.5 22.5 75.7 41.8 79.9 44.9 5.4 4.1 7.9 8.2 9.2 15.2.5 2.4.9 35.8 1 74.2.1 38.5.3 70.1.5 70.3.7.6 16.2-9.2 20-12.6 2-1.9 5-5.9 6.5-9l2.7-5.6V155c0-33.8-.3-64.1-.7-67.2-1.3-10.2-6-17.4-15.3-23.8-5-3.4-16.3-9.8-32.5-18.2-12.4-6.5-29.3-15.7-36-19.5-22.2-12.8-38.5-21.7-43-23.4-8.6-3.2-17.2-3.5-25-.6z"/><path d="M126.8 64.8c-7.5 4.2-13.9 7.9-14.2 8.2-.2.3 3.7 2.8 8.7 5.6 12.6 6.9 58.3 32.2 62.3 34.5 12.5 7 15.3 9.9 16.2 17 .4 3 .6 37.5.5 76.7l-.2 71.2 2.2-1.1c3-1.6 10.6-6.8 13.6-9.4 1.3-1.1 4.1-4.6 6.2-7.8 6.8-10.5 7-12.5 7-77.4 0-31.5-.2-57.7-.5-58.1-.3-.5-.8-2.4-1.1-4.3-.9-5.5-5.2-13.3-9.9-18.1-5.6-5.7-11-9.3-32.1-20.8-9.3-5.1-18.3-10.1-20-11-1.6-.9-5.7-3.2-9-5-3.3-1.8-7.9-4.3-10.3-5.6-2.3-1.3-4.6-2.4-5-2.3-.4 0-6.9 3.5-14.4 7.7z"/></svg>