<svg xmlns="http://www.w3.org/2000/svg" width="512" height="512" viewBox="0 0 512 512">
  <g transform="translate(61.4, 95.7) scale(4.62)">
    <path d="M31.8 52.57c-2.56-4.18-4.82-8-7.17-11.66-.66-1-.08-1.71.39-2.47q6.68-11 13.37-22l1.28-2.14c.68-1.09.47-1.49-.9-1.71-3-.46-4.92.62-6.06 3.38-.75 1.83-1.53 1.54-2.44 0-2.85-4.79-5.75-9.54-8.67-14.29C21 .67 20.58 0 22.39 0 35.8.07 49.2.08 62.6.12c.14 0 .29.12.73.32z" fill="#FFBE2D"/>
    <path d="M84.3.36l-42.14 69.1c-2.43-4-4.71-7.71-7-11.44-.7-1.14.16-1.89.64-2.69Q48.35 34.66 60.93 14l7.4-12.13c.47-.77.79-1.57 2-1.55C74.8.4 79.28.36 84.3.36zM21.24 35.19L0 .36h14.12c.93 0 1.29.6 1.68 1.24q6.11 10 12.21 20a1.94 1.94 0 0 1 .15 2.29c-2.28 3.64-4.49 7.33-6.92 11.3z" fill="#06202b"/>
  </g>
</svg>
